<svg width="363" height="64" viewBox="0 0 363 64" fill="none" xmlns="http://www.w3.org/2000/svg">
<path d="M34.5781 40.1484L28.9531 33.75H31.1328C31.7656 33.75 32.3281 33.3984 32.5391 32.8359C32.8203 32.2734 32.75 31.6406 32.3281 31.1484L26.8438 24.75H28.8828C29.5156 24.75 30.0781 24.3984 30.3594 23.8359C30.5703 23.2734 30.5 22.5703 30.0078 22.1484L22.2734 13.8516C21.8516 13.4297 21.0781 13.4297 20.6562 13.8516L12.9219 22.1484C12.4297 22.5703 12.3594 23.2734 12.5703 23.8359C12.8516 24.3984 13.4141 24.75 14.0469 24.75H16.0859L10.6016 31.1484C10.1797 31.6406 10.1094 32.2734 10.3906 32.8359C10.6016 33.3984 11.1641 33.75 11.7969 33.75H13.9766L8.35156 40.1484C7.92969 40.6406 7.85938 41.2734 8.14062 41.8359C8.35156 42.3984 8.98438 42.75 9.61719 42.75H19.25V44.5078L17.0703 47.8828C16.7188 48.6562 17.2812 49.5703 18.125 49.5703H24.8047C25.6484 49.5703 26.2109 48.6562 25.8594 47.8828L23.75 44.5078V42.75H33.3125C33.9453 42.75 34.5781 42.3984 34.7891 41.8359C35.0703 41.2734 35 40.6406 34.5781 40.1484ZM50.75 45V18.8182H62.0511C63.9943 18.8182 65.6946 19.2017 67.152 19.9688C68.6094 20.7358 69.7429 21.8139 70.5526 23.2031C71.3622 24.5923 71.767 26.2159 71.767 28.0739C71.767 29.9489 71.3494 31.5724 70.5142 32.9446C69.6875 34.3168 68.5241 35.3736 67.0241 36.1151C65.5327 36.8565 63.7898 37.2273 61.7955 37.2273H55.0455V31.7045H60.3636C61.1989 31.7045 61.9105 31.5597 62.4986 31.2699C63.0952 30.9716 63.5511 30.5497 63.8665 30.0043C64.1903 29.4588 64.3523 28.8153 64.3523 28.0739C64.3523 27.3239 64.1903 26.6847 63.8665 26.1562C63.5511 25.6193 63.0952 25.2102 62.4986 24.929C61.9105 24.6392 61.1989 24.4943 60.3636 24.4943H57.858V45H50.75ZM77.9066 45H70.2362L78.8782 18.8182H88.5941L97.2362 45H89.5657L83.8384 26.0284H83.6339L77.9066 45ZM76.4748 34.6705H90.8952V39.9886H76.4748V34.6705ZM95.7372 24.5455V18.8182H118.493V24.5455H110.618V45H103.612V24.5455H95.7372ZM128.34 45V18.8182H146.749V24.5455H135.448V29.0455H145.624V34.7727H135.448V45H128.34ZM157.484 45.358C155.354 45.358 153.53 44.9361 152.013 44.0923C150.496 43.2401 149.332 42.0554 148.523 40.5384C147.713 39.0128 147.308 37.2443 147.308 35.233C147.308 33.2216 147.713 31.4574 148.523 29.9403C149.332 28.4148 150.496 27.2301 152.013 26.3864C153.53 25.5341 155.354 25.108 157.484 25.108C159.615 25.108 161.439 25.5341 162.956 26.3864C164.473 27.2301 165.636 28.4148 166.446 29.9403C167.256 31.4574 167.661 33.2216 167.661 35.233C167.661 37.2443 167.256 39.0128 166.446 40.5384C165.636 42.0554 164.473 43.2401 162.956 44.0923C161.439 44.9361 159.615 45.358 157.484 45.358ZM157.536 40.142C158.132 40.142 158.648 39.9418 159.082 39.5412C159.517 39.1406 159.854 38.5696 160.092 37.8281C160.331 37.0866 160.45 36.2045 160.45 35.1818C160.45 34.1506 160.331 33.2685 160.092 32.5355C159.854 31.794 159.517 31.223 159.082 30.8224C158.648 30.4219 158.132 30.2216 157.536 30.2216C156.905 30.2216 156.364 30.4219 155.912 30.8224C155.46 31.223 155.115 31.794 154.876 32.5355C154.638 33.2685 154.518 34.1506 154.518 35.1818C154.518 36.2045 154.638 37.0866 154.876 37.8281C155.115 38.5696 155.46 39.1406 155.912 39.5412C156.364 39.9418 156.905 40.142 157.536 40.142ZM183.257 36.4091V25.3636H190.314V45H183.615V41.267H183.411C182.984 42.5199 182.239 43.5 181.173 44.2074C180.108 44.9062 178.842 45.2557 177.376 45.2557C176.004 45.2557 174.803 44.9403 173.771 44.3097C172.749 43.679 171.952 42.8097 171.381 41.7017C170.818 40.5937 170.533 39.3239 170.524 37.892V25.3636H177.581V36.4091C177.589 37.3807 177.837 38.1435 178.322 38.6974C178.817 39.2514 179.507 39.5284 180.393 39.5284C180.982 39.5284 181.489 39.4048 181.915 39.1577C182.349 38.902 182.682 38.544 182.912 38.0838C183.151 37.6151 183.266 37.0568 183.257 36.4091ZM200.96 33.9545V45H193.903V25.3636H200.602V29.0966H200.806C201.233 27.8523 201.983 26.8764 203.056 26.169C204.139 25.4616 205.4 25.108 206.841 25.108C208.23 25.108 209.436 25.4276 210.458 26.0668C211.49 26.6974 212.287 27.5668 212.849 28.6747C213.42 29.7827 213.701 31.0483 213.693 32.4716V45H206.636V33.9545C206.645 32.983 206.397 32.2202 205.895 31.6662C205.4 31.1122 204.71 30.8352 203.824 30.8352C203.244 30.8352 202.737 30.9631 202.302 31.2188C201.876 31.4659 201.548 31.8239 201.318 32.2926C201.088 32.7528 200.968 33.3068 200.96 33.9545ZM224.284 45.2557C222.887 45.2557 221.6 44.8892 220.424 44.1562C219.256 43.4233 218.319 42.3111 217.611 40.8196C216.912 39.3281 216.563 37.4489 216.563 35.1818C216.563 32.8125 216.929 30.8864 217.662 29.4034C218.404 27.9205 219.358 26.8338 220.526 26.1435C221.702 25.4531 222.938 25.108 224.233 25.108C225.205 25.108 226.057 25.2784 226.79 25.6193C227.523 25.9517 228.137 26.3991 228.631 26.9616C229.125 27.5156 229.5 28.125 229.756 28.7898H229.858V18.8182H236.915V45H229.909V41.7784H229.756C229.483 42.4432 229.091 43.0398 228.58 43.5682C228.077 44.0881 227.463 44.5014 226.739 44.8082C226.023 45.1065 225.205 45.2557 224.284 45.2557ZM226.892 39.8352C227.54 39.8352 228.094 39.6477 228.554 39.2727C229.023 38.8892 229.381 38.3523 229.628 37.6619C229.884 36.9631 230.012 36.1364 230.012 35.1818C230.012 34.2102 229.884 33.3793 229.628 32.6889C229.381 31.9901 229.023 31.4574 228.554 31.0909C228.094 30.7159 227.54 30.5284 226.892 30.5284C226.245 30.5284 225.691 30.7159 225.23 31.0909C224.779 31.4574 224.429 31.9901 224.182 32.6889C223.944 33.3793 223.824 34.2102 223.824 35.1818C223.824 36.1534 223.944 36.9886 224.182 37.6875C224.429 38.3778 224.779 38.9105 225.23 39.2855C225.691 39.652 226.245 39.8352 226.892 39.8352ZM245.851 45.3068C244.598 45.3068 243.49 45.1023 242.527 44.6932C241.573 44.2756 240.823 43.6449 240.277 42.8011C239.732 41.9574 239.459 40.8835 239.459 39.5795C239.459 38.5057 239.642 37.5895 240.009 36.831C240.375 36.0639 240.887 35.4375 241.543 34.9517C242.199 34.4659 242.962 34.0952 243.831 33.8395C244.709 33.5838 245.655 33.4176 246.669 33.3409C247.769 33.2557 248.651 33.1534 249.316 33.0341C249.989 32.9062 250.475 32.7315 250.773 32.5099C251.071 32.2798 251.221 31.9773 251.221 31.6023V31.5511C251.221 31.0398 251.025 30.6477 250.632 30.375C250.24 30.1023 249.738 29.9659 249.124 29.9659C248.451 29.9659 247.901 30.1151 247.475 30.4134C247.057 30.7031 246.806 31.1506 246.721 31.7557H240.226C240.311 30.5625 240.691 29.4631 241.364 28.4574C242.046 27.4432 243.039 26.6335 244.343 26.0284C245.647 25.4148 247.275 25.108 249.226 25.108C250.632 25.108 251.894 25.2741 253.01 25.6065C254.127 25.9304 255.077 26.3864 255.861 26.9744C256.645 27.554 257.242 28.2358 257.651 29.0199C258.069 29.7955 258.277 30.6392 258.277 31.5511V45H251.681V42.2386H251.527C251.135 42.9716 250.658 43.5639 250.096 44.0156C249.542 44.4673 248.907 44.7955 248.191 45C247.483 45.2045 246.703 45.3068 245.851 45.3068ZM248.152 40.858C248.689 40.858 249.192 40.7472 249.661 40.5256C250.138 40.304 250.526 39.9844 250.824 39.5668C251.123 39.1491 251.272 38.642 251.272 38.0455V36.4091C251.084 36.4858 250.884 36.5582 250.671 36.6264C250.466 36.6946 250.245 36.7585 250.006 36.8182C249.776 36.8778 249.529 36.9332 249.265 36.9844C249.009 37.0355 248.74 37.0824 248.459 37.125C247.914 37.2102 247.466 37.3509 247.117 37.5469C246.776 37.7344 246.52 37.9688 246.35 38.25C246.188 38.5227 246.107 38.8295 246.107 39.1705C246.107 39.7159 246.299 40.1335 246.682 40.4233C247.066 40.7131 247.556 40.858 248.152 40.858ZM273.359 25.3636V30.4773H260.422V25.3636H273.359ZM262.928 20.6591H269.984V38.6847C269.984 38.9574 270.031 39.1875 270.125 39.375C270.219 39.554 270.364 39.6903 270.56 39.7841C270.756 39.8693 271.007 39.9119 271.314 39.9119C271.527 39.9119 271.774 39.8864 272.055 39.8352C272.345 39.7841 272.558 39.7415 272.695 39.7074L273.717 44.6676C273.402 44.7614 272.95 44.8764 272.362 45.0128C271.783 45.1491 271.092 45.2386 270.291 45.2812C268.672 45.3665 267.313 45.2003 266.213 44.7827C265.114 44.3565 264.287 43.6875 263.733 42.7756C263.179 41.8636 262.911 40.7216 262.928 39.3494V20.6591ZM276.239 45V25.3636H283.296V45H276.239ZM279.767 23.3182C278.813 23.3182 277.995 23.0028 277.313 22.3722C276.631 21.7415 276.29 20.983 276.29 20.0966C276.29 19.2102 276.631 18.4517 277.313 17.821C277.995 17.1903 278.813 16.875 279.767 16.875C280.73 16.875 281.549 17.1903 282.222 17.821C282.904 18.4517 283.245 19.2102 283.245 20.0966C283.245 20.983 282.904 21.7415 282.222 22.3722C281.549 23.0028 280.73 23.3182 279.767 23.3182ZM296.352 45.358C294.221 45.358 292.397 44.9361 290.88 44.0923C289.363 43.2401 288.2 42.0554 287.39 40.5384C286.58 39.0128 286.175 37.2443 286.175 35.233C286.175 33.2216 286.58 31.4574 287.39 29.9403C288.2 28.4148 289.363 27.2301 290.88 26.3864C292.397 25.5341 294.221 25.108 296.352 25.108C298.482 25.108 300.306 25.5341 301.823 26.3864C303.34 27.2301 304.504 28.4148 305.313 29.9403C306.123 31.4574 306.528 33.2216 306.528 35.233C306.528 37.2443 306.123 39.0128 305.313 40.5384C304.504 42.0554 303.34 43.2401 301.823 44.0923C300.306 44.9361 298.482 45.358 296.352 45.358ZM296.403 40.142C296.999 40.142 297.515 39.9418 297.95 39.5412C298.384 39.1406 298.721 38.5696 298.96 37.8281C299.198 37.0866 299.317 36.2045 299.317 35.1818C299.317 34.1506 299.198 33.2685 298.96 32.5355C298.721 31.794 298.384 31.223 297.95 30.8224C297.515 30.4219 296.999 30.2216 296.403 30.2216C295.772 30.2216 295.231 30.4219 294.779 30.8224C294.327 31.223 293.982 31.794 293.744 32.5355C293.505 33.2685 293.386 34.1506 293.386 35.1818C293.386 36.2045 293.505 37.0866 293.744 37.8281C293.982 38.5696 294.327 39.1406 294.779 39.5412C295.231 39.9418 295.772 40.142 296.403 40.142ZM316.448 33.9545V45H309.391V25.3636H316.09V29.0966H316.295C316.721 27.8523 317.471 26.8764 318.545 26.169C319.627 25.4616 320.888 25.108 322.329 25.108C323.718 25.108 324.924 25.4276 325.947 26.0668C326.978 26.6974 327.775 27.5668 328.337 28.6747C328.908 29.7827 329.19 31.0483 329.181 32.4716V45H322.124V33.9545C322.133 32.983 321.886 32.2202 321.383 31.6662C320.888 31.1122 320.198 30.8352 319.312 30.8352C318.732 30.8352 318.225 30.9631 317.79 31.2188C317.364 31.4659 317.036 31.8239 316.806 32.2926C316.576 32.7528 316.457 33.3068 316.448 33.9545Z" fill="black"/>
</svg>
